<svg width="88" height="74" viewBox="0 0 88 74" fill="none" xmlns="http://www.w3.org/2000/svg">
<g id="Group 13">
<g id="Group">
<g id="Group_2">
<path id="Vector" d="M14.5041 71.8864C14.3318 73.1504 9.39172 73.093 9.33428 71.8864C9.10451 68.1518 6.46214 65.911 6.46214 65.911C6.46214 67.9794 7.03657 70.6224 6.74935 71.8864C6.51958 72.7483 5.31328 72.7483 4.50909 72.7483C3.93466 72.7483 3.59 72.3461 3.41767 71.6566C3.1879 70.45 2.95813 67.9794 2.95813 65.1641C2.95813 63.4404 2.95813 61.7742 3.13046 60.2229C3.30279 58.6141 3.41767 57.2926 3.59 56.3159C3.9921 54.1326 4.50909 53.0984 5.42817 53.0984C6.28981 53.0984 7.89821 52.6962 7.89821 54.7646C7.89821 56.7755 6.74935 60.7974 6.46214 63.4404C6.46214 63.4404 10.7129 56.1435 13.3553 56.9479C14.2169 57.2352 14.6765 57.6374 14.6765 58.4992C14.6765 60.108 12.2639 62.1764 7.89821 64.3023C12.0915 66.6579 14.7339 69.7606 14.5041 71.8864Z" fill="#40BB97"/>
<path id="Vector_2" d="M20.0762 64.8768C20.0762 70.3351 21.1676 72.0588 19.6167 72.5759C18.9273 72.8057 16.3999 72.9206 16.1126 72.1162C15.768 71.1969 15.8254 68.9562 15.8254 66.6005C15.8254 61.1422 16.5147 59.1887 17.9508 59.1887C19.0997 59.1887 20.0762 60.4527 20.0762 64.8768ZM20.0762 56.1435C20.0762 57.3501 19.272 58.0396 17.9508 58.0396C16.6296 58.0396 15.9403 57.1777 15.9403 56.201C15.9403 54.8795 16.802 54.2475 18.1231 54.2475C19.5018 54.3049 20.0762 55.1668 20.0762 56.1435Z" fill="#40BB97"/>
<path id="Vector_3" d="M26.5672 57.0628C28.4628 57.0628 29.8414 57.9821 30.7031 59.361C30.4159 57.5799 30.0712 56.4882 30.0712 55.1668C30.0712 53.7878 30.7031 52.8111 31.9668 52.8111C33.1157 52.8111 34.9538 52.926 35.2411 54.4773C35.5857 56.5457 34.5517 61.8316 34.5517 64.7619C34.5517 67.4048 34.322 69.8755 34.0348 71.3118C33.8624 72.8057 31.4498 72.6908 30.301 72.6333C29.6117 72.6333 29.8989 71.8289 29.8414 71.9439C29.3819 72.6333 28.8649 72.6908 27.0267 72.6908C23.5802 72.6908 20.9378 69.9904 20.9378 64.5895C20.9952 59.4185 23.1781 57.0628 26.5672 57.0628ZM27.8309 69.5882C28.9798 69.5307 30.2435 63.7277 28.6926 61.0272C27.4863 58.9588 24.4993 61.8891 24.4993 64.7044C24.4993 66.3706 25.4183 69.7031 27.8309 69.5882Z" fill="#40BB97"/>
<path id="Vector_4" d="M47.0167 68.7263C47.0167 69.4158 46.8444 70.0478 46.5572 70.5649C46.27 71.1395 45.8679 71.5991 45.2934 72.0013C44.1446 72.8057 42.6511 73.2653 40.8703 73.2653C40.1236 73.2653 38.6301 73.2079 37.4238 72.8632C36.7919 72.6908 36.3324 72.461 35.9877 72.1737C35.5856 71.8289 35.3558 71.3693 35.3558 70.9097C35.3558 70.45 35.5282 69.6456 35.9303 69.0136C36.3898 68.2092 37.0791 67.807 37.7684 67.807C38.1131 67.807 38.8598 67.9794 39.7215 68.0943C40.5257 68.2667 41.4448 68.439 42.1915 68.4965C43.3404 68.6114 43.4553 68.4965 43.5127 68.4965C43.5127 67.9219 43.2829 67.4623 40.4108 66.6579C38.745 66.2557 37.5961 65.7961 36.9068 65.2215C36.16 64.647 35.8154 63.8426 35.8154 62.8084C35.8154 61.0847 36.677 59.6483 38.2854 58.729C39.5492 58.0395 41.215 57.5799 42.9383 57.5799C44.2595 57.5799 45.3509 57.8097 46.1551 58.1545C47.0167 58.5566 47.4763 59.1312 47.4763 59.8207C47.4763 60.4527 47.1316 62.004 46.27 62.5786C45.9253 62.8084 45.5232 62.8658 45.1211 62.6935C44.8339 62.5786 43.5702 62.3487 42.249 62.2338C40.698 62.0615 39.6066 62.1764 39.2045 62.4062C39.0896 62.4636 39.0896 62.5211 39.0896 62.5786C39.0896 62.8658 39.1471 63.1531 39.5492 63.4404C39.9513 63.7277 40.8129 64.0724 42.1915 64.5321C43.9723 65.0492 45.1786 65.6237 45.9253 66.3132C46.6721 66.8877 47.0167 67.6921 47.0167 68.7263Z" fill="#40BB97"/>
</g>
</g>
<path id="Vector_5" d="M50.7216 68.5664C51.6463 68.5664 52.9178 69.5223 52.9178 70.8879C52.9178 72.1169 51.9931 72.7997 51.184 72.7997C50.1437 72.7997 48.9878 72.1169 48.9878 70.4782C48.9878 69.3858 50.0281 68.5664 50.7216 68.5664Z" fill="#F7941D"/>
<path id="Vector_6" d="M54.1271 67.7787C54.1271 64.384 56.3163 61.9878 59.8606 61.9878C62.0497 61.9878 63.1964 62.7866 63.1964 63.785C63.1964 64.384 62.2582 66.8801 60.6945 65.682C59.8606 65.0829 56.5247 65.4823 56.5247 67.3793C56.5247 69.1765 57.5672 69.9752 59.2351 69.9752C60.4861 69.9752 61.1115 69.476 61.9455 69.476C62.4667 69.476 62.8837 69.7755 62.8837 70.4744C62.8837 71.5727 61.5285 72.5711 58.8181 72.5711C55.5865 72.4713 54.1271 70.6741 54.1271 67.7787Z" fill="#F7941D"/>
<path id="Vector_7" d="M63.1964 67.5314C63.1964 64.3061 64.2862 61.9878 67.3374 61.9878C70.4976 61.9878 72.5681 64.1045 72.5681 67.3299C72.5681 70.5552 70.4976 72.5711 67.2284 72.5711C64.3951 72.4703 63.1964 70.656 63.1964 67.5314ZM70.0617 67.0275C70.0617 65.1124 68.972 63.2981 67.5553 63.9029C65.049 65.0116 65.8118 68.9426 67.2284 69.6481C68.754 70.4545 70.0617 68.9426 70.0617 67.0275Z" fill="#F7941D"/>
<path id="Vector_8" d="M87.393 66.5692C87.393 68.2623 88.1674 70.7522 87.9462 71.7482C87.7249 72.6446 86.176 72.545 85.4016 72.545C84.7378 72.545 83.5208 72.4454 83.5208 71.4494C83.5208 70.5531 84.959 67.9636 84.959 66.37C84.959 65.1749 84.4059 64.4777 83.4102 64.4777C82.5251 64.4777 81.9719 65.2745 81.8613 66.37C81.64 68.2624 82.857 71.051 82.7464 71.549C82.4145 72.9433 78.8742 72.9433 77.9891 71.3498C77.4359 70.2543 79.2061 67.366 79.2061 66.2704C79.0954 64.7765 78.321 64.0793 77.4359 64.0793C76.3296 64.0793 76.3296 65.2745 76.219 66.9676C76.1083 67.9636 76.7721 70.3539 76.7721 71.2502C76.7721 72.6446 75.1126 72.4454 74.3382 72.4454C73.4531 72.4454 72.0149 70.7522 72.7893 67.5652C73.0106 66.4696 72.9 65.1749 73.0106 64.0793C73.1212 62.9838 73.4531 62.0874 74.3382 62.0874C75.1126 62.0874 75.3339 62.685 75.3339 64.0793C75.8871 62.7846 76.9934 61.9878 78.321 61.9878C79.8699 61.9878 80.8656 62.7846 81.1975 64.1789C81.7507 63.0834 82.9676 62.187 84.4059 62.187C85.9547 62.187 87.393 63.3822 87.393 66.5692Z" fill="#F7941D"/>
<g id="Group 11">
<path id="Vector_9" fill-rule="evenodd" clip-rule="evenodd" d="M71.7077 59.4531L68.3587 55.8601L71.7077 52.2631H65.015V59.4531H71.7077Z" fill="#37BFD5"/>
<path id="Vector_10" fill-rule="evenodd" clip-rule="evenodd" d="M51.134 50.5275H66.2545V58.2134H51.134V50.5275Z" fill="#7FD0DD"/>
<path id="Vector_11" fill-rule="evenodd" clip-rule="evenodd" d="M65.015 58.2135H66.2544L65.015 59.4532V58.2135Z" fill="#268D9D"/>
<g id="_685316392">
<path id="Vector_12" fill-rule="evenodd" clip-rule="evenodd" d="M50.487 49.7323C50.487 49.4971 50.6777 49.3064 50.9129 49.3064C51.1481 49.3064 51.3388 49.4971 51.3388 49.7323V69.1214C51.3388 69.3566 51.1481 69.5473 50.9129 69.5473C50.6777 69.5473 50.487 69.3566 50.487 69.1214V49.7323Z" fill="#F7941D"/>
</g>
<rect id="Rectangle 2" x="0.354553" y="4.37692" width="0.648985" height="0.162246" rx="0.0811231" fill="#F7941D"/>
</g>
<path id="Vector_13" d="M13.3381 1.25379C14.4424 1.25379 15.3994 1.54879 16.0619 2.06505C16.7981 2.58131 17.0926 3.46632 17.019 4.64634C16.7981 11.3577 16.5773 18.069 16.43 24.7804C16.2092 31.418 16.0619 38.1293 15.8411 44.9145C15.8411 45.7995 15.6202 46.537 15.2521 47.2007C14.8104 47.8645 14.0743 48.1595 13.0436 48.2333C12.013 48.2333 11.2768 47.9382 10.8351 47.2745C10.3934 46.6107 10.2462 45.7995 10.2462 44.9145C10.1726 42.7019 10.1726 40.4156 10.1726 38.2031C10.1726 35.9906 10.0989 33.7043 10.0989 31.4917H8.25852C8.33214 33.778 8.40575 36.0643 8.47937 38.2769C8.55299 40.4894 8.55299 42.7019 8.70022 44.9882C8.70022 45.8732 8.55299 46.6845 8.11129 47.3482C7.7432 48.012 6.93341 48.3808 5.82915 48.3808C4.87213 48.3808 4.13596 48.0858 3.69426 47.422C3.25255 46.7582 3.0317 46.0207 2.95809 45.1357C2.51638 38.4244 2.00106 31.713 1.55936 25.0754C0.970422 18.4378 0.52872 11.7264 0.0133996 5.01509C-0.0602175 3.83508 0.160634 2.95006 0.896805 2.36005C1.55936 1.8438 2.44277 1.47504 3.62064 1.40129H3.98873C4.94575 1.40129 5.82915 1.62254 6.49171 2.1388C7.15426 2.65506 7.44873 3.46632 7.44873 4.57259C7.52235 7.96514 7.66958 11.2839 7.7432 14.6765C7.81682 17.9953 7.89043 21.3878 7.96405 24.7804L9.95171 24.7066C9.8781 21.3141 9.80448 17.9953 9.80448 14.6027C9.73086 11.2839 9.73086 7.89139 9.73086 4.49884C9.65725 3.31882 9.95171 2.43381 10.6879 1.91755C11.3504 1.47504 12.2338 1.18004 13.3381 1.25379Z" fill="#40BB97"/>
<path id="Vector_14" d="M21.0679 42.3332C20.7734 37.3918 20.4054 24.1166 20.0373 19.2491C19.7428 14.3815 19.3747 9.51391 19.0066 4.64633C18.933 3.46631 19.1539 2.5813 19.89 1.99129C20.5526 1.47503 21.436 1.10628 22.6139 1.03253H22.8347C23.939 1.03253 24.8224 1.25378 25.4849 1.77004C26.1475 2.2863 26.5156 3.09756 26.442 4.27758C26.5892 8.85015 26.6628 13.4227 26.81 17.8478C26.8837 22.3466 27.1045 35.2531 27.2517 39.8256C27.2517 40.1206 27.3254 40.3419 27.5462 40.5631C27.6934 40.7844 27.9143 40.9319 28.2088 40.9319H28.356C28.6505 40.8581 28.7977 40.7844 28.9449 40.5631C29.0922 40.3419 29.1658 40.1206 29.1658 39.8994C29.0922 35.3268 29.0186 22.3466 28.9449 17.8478C28.7241 13.349 28.7241 8.85015 28.6505 4.20383C28.5769 3.02381 28.8713 2.21255 29.6075 1.62254C30.3437 1.10628 31.2271 0.811273 32.3313 0.885025C33.4356 0.885025 34.3926 1.18003 35.0552 1.69629C35.7913 2.21255 36.0858 3.09756 36.0122 4.27758C35.865 9.2189 35.7177 14.0865 35.5705 18.9541C35.4232 23.8216 35.3496 37.0968 35.2024 42.0382C35.2024 42.7019 34.9815 43.3657 34.6871 44.0294C34.3926 44.6932 34.0245 45.2832 33.5828 45.7995C33.1411 46.3895 32.6258 46.832 31.9632 47.127C31.3007 47.422 30.6381 47.6432 29.902 47.6432L26.5156 47.717C25.853 47.717 25.1905 47.5695 24.5279 47.2745C23.8654 46.9795 23.2764 46.6107 22.8347 46.0945C22.3194 45.5782 21.9513 44.9882 21.6568 44.3982C21.2888 43.7344 21.1415 43.0707 21.0679 42.3332Z" fill="#40BB97"/>
<path id="Vector_15" d="M73.2625 44.3244C72.8944 39.4569 72.5263 25.3704 72.2318 20.5766C71.9374 15.709 71.5693 10.8414 71.2012 5.97384C71.1276 5.08883 71.2748 4.27757 71.6429 3.61381C72.011 2.87629 72.4527 2.28629 73.0416 1.77003C73.6306 1.25377 74.2931 0.811262 75.1029 0.516258C75.8391 0.221253 76.6489 0.0737511 77.4587 0.0737511L81.5076 0C82.3174 0 83.0536 0.147502 83.8634 0.368756C84.6731 0.66376 85.4093 1.03252 85.9983 1.54877C86.5872 2.06503 87.1025 2.65504 87.4706 3.39255C87.8387 4.13006 88.0595 4.86757 87.9859 5.75259C87.8387 10.6202 87.6914 15.4877 87.5442 20.3553C87.397 25.2229 87.2497 39.3094 87.1025 44.2507C87.1025 45.2094 86.808 46.0207 86.3663 46.6845C85.851 47.2745 85.1148 47.5695 84.0842 47.4957H83.937C82.9799 47.4957 82.2438 47.2007 81.7285 46.537C81.2868 45.8732 81.0659 45.1357 81.0659 44.1769C81.0659 43.2182 80.9923 42.1856 80.9923 41.1531C80.9923 40.1206 80.9923 29.8692 80.9923 28.9104L79.0782 28.9842C79.0782 29.943 79.1519 40.1944 79.1519 41.2269C79.2255 42.2594 79.2255 43.2919 79.2255 44.2507C79.2991 45.2094 79.0782 46.0945 78.6365 46.6845C78.1948 47.3482 77.4587 47.6432 76.428 47.6432C75.3238 47.717 74.5876 47.4957 74.0723 46.9057C73.557 46.1682 73.2625 45.3569 73.2625 44.3244ZM78.5629 7.67012C78.6365 10.1039 78.7102 12.4639 78.7838 14.824C78.8574 17.184 78.931 19.6178 79.0046 22.0516L80.9187 21.9778C80.9187 19.5441 80.9187 17.184 80.8451 14.7502C80.7714 12.3164 80.7714 9.9564 80.7714 7.52262C80.7714 7.15386 80.6242 6.93261 80.4033 6.7851C80.1825 6.6376 79.888 6.56385 79.5936 6.56385C79.2991 6.56385 79.0782 6.71135 78.8574 6.93261C78.6365 7.22761 78.5629 7.44886 78.5629 7.67012Z" fill="#40BB97"/>
<path id="Vector_16" d="M52.3552 2.06505C51.5454 1.25379 50.1467 0.737529 48.8216 1.03253C47.0548 1.47504 45.7296 3.46632 45.9505 5.67885C46.0977 12.8327 46.0977 19.5441 46.3186 26.6979V27.6567C46.3922 31.713 46.4658 35.6956 46.4658 39.7519C46.4658 40.0469 46.3922 40.2681 46.245 40.4894C46.0977 40.7106 45.8769 40.8581 45.656 40.8581C45.3616 40.7844 45.2143 40.7106 44.9935 40.4894C44.8462 40.2681 44.699 40.0469 44.699 39.7519C44.699 38.3506 44.6254 36.9493 44.5518 35.5481C44.4782 34.1468 44.4781 32.7455 44.4045 31.3442C44.4045 30.238 44.1837 29.4267 43.5947 28.8367C43.0794 28.2467 42.196 28.0254 41.1654 28.0992C40.0611 28.0992 39.2513 28.468 38.736 29.058C38.2207 29.7217 38.0735 30.533 38.1471 31.5655C38.2943 33.3355 38.3679 35.1056 38.5152 36.8018C38.6624 38.4981 38.736 40.2681 38.8832 42.0382C38.8832 42.7019 39.0305 43.3657 39.325 44.0294C39.6194 44.6932 39.9875 45.2832 40.4292 45.7257C40.8709 46.242 41.4598 46.6107 42.0488 46.9057C42.6377 47.2007 43.3003 47.3482 43.9628 47.3482L47.1284 47.2745C47.8645 47.2745 48.5271 47.127 49.1896 46.7582C49.7786 46.4632 50.3675 46.0207 50.8092 45.5045C51.2509 44.9882 51.619 44.3982 51.8399 43.7344C52.0607 43.0707 52.208 42.4069 52.208 41.7432C52.3552 35.5481 53.3122 11.3577 53.4594 5.1626C53.6067 4.79384 53.4594 3.17132 52.3552 2.06505Z" fill="#40BB97"/>
<path id="Vector_17" d="M67.7412 2.06505C66.9314 1.25379 65.5327 0.737529 64.2075 1.03253C62.4407 1.47504 61.1156 3.46632 61.3365 5.67885C61.4837 12.8327 61.4837 19.5441 61.7046 26.6979V27.6567C61.7782 31.713 61.8518 35.6956 61.8518 39.7519C61.8518 40.0469 61.7782 40.2681 61.6309 40.4894C61.4837 40.7106 61.2629 40.8581 61.042 40.8581C60.7475 40.7844 60.6003 40.7106 60.3795 40.4894C60.2322 40.2681 60.085 40.0469 60.085 39.7519C60.085 38.3506 60.0114 36.9493 59.9378 35.5481C59.8641 34.1468 59.8641 32.7455 59.7905 31.3442C59.7905 30.238 59.5697 29.4267 58.9807 28.8367C58.4654 28.2467 57.582 28.0254 56.5514 28.0992C55.4471 28.0992 54.6373 28.468 54.122 29.058C53.6067 29.7217 53.4594 30.533 53.5331 31.5655C53.6803 33.3355 53.7539 35.1056 53.9011 36.8018C54.0484 38.4981 54.122 40.2681 54.2692 42.0382C54.2692 42.7019 54.4165 43.3657 54.7109 44.0294C55.0054 44.6932 55.3735 45.2832 55.8152 45.7257C56.2569 46.242 56.8458 46.6107 57.4348 46.9057C58.0237 47.2007 58.6863 47.3482 59.3488 47.3482L62.5144 47.2745C63.2505 47.2745 63.9131 47.127 64.5756 46.7582C65.1646 46.4632 65.7535 46.0207 66.1952 45.5045C66.6369 44.9882 67.005 44.3982 67.2259 43.7344C67.4467 43.0707 67.5939 42.4069 67.5939 41.7432C67.7412 35.5481 68.6982 11.3577 68.8454 5.1626C68.9927 4.79384 68.919 3.17132 67.7412 2.06505Z" fill="#40BB97"/>
</g>
</svg>
